# xmcd
#
# Track frame offsets: 
#        150
#        12672
#        22422
#        32315
#        43687
#        54317
#        67173
#        77893
#        88989
#        100899
#
# Disc length: 1482 seconds
#
# Revision: 0
# Processed by: cddbd v1.5.2PL0 Copyright (c) Steve Scherf et al.
# Submitted via: ExactAudioCopyFreeDBPlugin 1.0
#
DISCID=8605c80a
DTITLE=Porter Wagoner and Dolly Parton - Porter 'N' Dolly
DYEAR=1974
DGENRE=Country
TTITLE0=Please Don't Stop Loving Me
TTITLE1=The Fire That Keeps You Warm
TTITLE2=Too Far Gone
TTITLE3=We'd Have To Be Crazy
TTITLE4=The Power Of Love
TTITLE5=Sixteen Years
TTITLE6=Together You And I
TTITLE7=Without You
TTITLE8=Two
TTITLE9=Sounds Of Nature
EXTD=
EXTT0=
EXTT1=
EXTT2=
EXTT3=
EXTT4=
EXTT5=
EXTT6=
EXTT7=
EXTT8=
EXTT9=
PLAYORDER=
